<svg width="96" height="32" viewBox="0 0 96 32" fill="none" xmlns="http://www.w3.org/2000/svg">
<path d="M27.046 6.83874C24.4962 4.36327 21.106 3 17.5 3C13.894 3 10.5038 4.36327 7.95402 6.83874C5.40421 9.31422 4 12.6056 4 16.1064C4 19.6072 5.40426 22.8985 7.95402 25.3741C10.5038 27.8496 13.894 29.2128 17.5 29.2128C21.106 29.2128 24.4962 27.8495 27.046 25.3741C29.5958 22.8986 31 19.6072 31 16.1064C31 12.6056 29.5957 9.31427 27.046 6.83874Z" fill="#11C76F"/>
<g clip-path="url(#clip0_4771:67)">
<path d="M17.8857 8.24261V24.7192" stroke="white" stroke-width="2" stroke-linecap="round" stroke-linejoin="round"/>
<path d="M21.7429 11.2384H15.9572C15.2411 11.2384 14.5544 11.5145 14.048 12.0061C13.5417 12.4977 13.2572 13.1644 13.2572 13.8597C13.2572 14.5549 13.5417 15.2216 14.048 15.7132C14.5544 16.2048 15.2411 16.4809 15.9572 16.4809H19.8143C20.5304 16.4809 21.2172 16.7571 21.7235 17.2487C22.2299 17.7403 22.5143 18.407 22.5143 19.1022C22.5143 19.7974 22.2299 20.4642 21.7235 20.9557C21.2172 21.4473 20.5304 21.7235 19.8143 21.7235H13.2572" stroke="white" stroke-width="2" stroke-linecap="round" stroke-linejoin="round"/>
</g>
<path d="M37.457 9.285C38.258 9.267 39.0905 9.249 39.9545 9.231C40.8275 9.204 41.669 9.1905 42.479 9.1905C44.27 9.1905 45.6065 9.5235 46.4885 10.1895C47.3795 10.8465 47.825 11.805 47.825 13.065C47.825 13.731 47.6225 14.343 47.2175 14.901C46.8215 15.459 46.2815 15.855 45.5975 16.089C46.4165 16.305 47.123 16.7595 47.717 17.4525C48.32 18.1365 48.6215 18.933 48.6215 19.842C48.6215 21.129 48.149 22.1595 47.204 22.9335C46.268 23.7075 44.7965 24.0945 42.7895 24.0945C41.8085 24.0945 40.9085 24.0855 40.0895 24.0675C39.2705 24.0495 38.393 24.0315 37.457 24.0135L37.3085 23.8785V9.42L37.457 9.285ZM42.4385 11.175C42.1145 11.175 41.7095 11.175 41.2235 11.175C40.7375 11.175 40.3055 11.166 39.9275 11.148V15.252H42.3845C43.1405 15.252 43.7165 15.1485 44.1125 14.9415C44.5085 14.7345 44.7785 14.4735 44.9225 14.1585C45.0755 13.8435 45.152 13.524 45.152 13.2C45.152 12.867 45.08 12.5475 44.936 12.2415C44.792 11.9265 44.522 11.67 44.126 11.472C43.739 11.274 43.1765 11.175 42.4385 11.175ZM39.9275 22.1235C40.4315 22.1145 40.9265 22.11 41.4125 22.11C41.8985 22.101 42.38 22.0965 42.857 22.0965C43.703 22.0965 44.342 21.9705 44.774 21.7185C45.215 21.4575 45.512 21.1425 45.665 20.7735C45.827 20.4045 45.908 20.049 45.908 19.707C45.908 19.356 45.809 18.9915 45.611 18.6135C45.422 18.2355 45.089 17.916 44.612 17.655C44.135 17.394 43.4735 17.2635 42.6275 17.2635H39.9275V22.1235ZM55.3276 20.652C55.2286 20.652 55.0036 20.6475 54.6526 20.6385C54.3106 20.6295 54.0361 20.625 53.8291 20.625L52.6141 24.0135C52.2991 24.0945 51.9211 24.135 51.4801 24.135C50.9581 24.135 50.5441 24.072 50.2381 23.946L50.1571 23.811L55.5436 9.285C55.7596 9.249 56.0206 9.222 56.3266 9.204C56.6326 9.177 56.8981 9.1635 57.1231 9.1635C57.3301 9.1635 57.5731 9.177 57.8521 9.204C58.1401 9.222 58.3921 9.249 58.6081 9.285L63.9676 23.8785C63.7606 23.9775 63.5131 24.054 63.2251 24.108C62.9461 24.162 62.6851 24.189 62.4421 24.189C62.0731 24.189 61.7626 24.1125 61.5106 23.9595C61.2676 23.8065 61.0561 23.469 60.8761 22.947L60.0526 20.625C59.8726 20.625 59.6161 20.6295 59.2831 20.6385C58.9591 20.6475 58.7431 20.652 58.6351 20.652H55.3276ZM55.7866 15.1305L54.5851 18.4785C54.7831 18.4785 55.0171 18.474 55.2871 18.465C55.5661 18.456 55.7506 18.4515 55.8406 18.4515H58.1896C58.2796 18.4515 58.4416 18.456 58.6756 18.465C58.9096 18.474 59.1166 18.4785 59.2966 18.4785L58.3111 15.6975C58.1131 15.1215 57.8881 14.433 57.6361 13.632C57.3931 12.831 57.1816 12.129 57.0016 11.526H56.8801C56.7181 12.102 56.5336 12.7365 56.3266 13.4295C56.1196 14.1135 55.9396 14.6805 55.7866 15.1305ZM70.6917 15.441C70.4487 15.018 70.1787 14.5185 69.8817 13.9425C69.5847 13.3575 69.3282 12.858 69.1122 12.444L69.0042 12.471C69.0312 12.993 69.0582 13.587 69.0852 14.253C69.1122 14.91 69.1302 15.54 69.1392 16.143C69.1572 16.737 69.1662 17.2005 69.1662 17.5335V24C68.9412 24.036 68.7207 24.063 68.5047 24.081C68.2977 24.099 68.1042 24.108 67.9242 24.108C67.7442 24.108 67.5417 24.099 67.3167 24.081C67.0917 24.063 66.8712 24.036 66.6552 24V9.3255C66.8712 9.2805 67.1277 9.2445 67.4247 9.2175C67.7307 9.1905 67.9872 9.177 68.1942 9.177C68.4192 9.177 68.6757 9.186 68.9637 9.204C69.2607 9.213 69.5127 9.24 69.7197 9.285L74.7012 17.871C74.9442 18.285 75.2187 18.807 75.5247 19.437C75.8397 20.067 76.1097 20.589 76.3347 21.003L76.4562 20.976C76.4202 20.508 76.3797 19.9455 76.3347 19.2885C76.2987 18.6225 76.2672 17.9745 76.2402 17.3445C76.2132 16.7145 76.1997 16.206 76.1997 15.819V10.743C76.1997 10.158 76.3077 9.753 76.5237 9.528C76.7397 9.294 77.1177 9.177 77.6577 9.177H78.6027L78.7512 9.3255V23.973C78.5262 24.018 78.2652 24.0495 77.9682 24.0675C77.6802 24.0945 77.4282 24.108 77.2122 24.108C76.9962 24.108 76.7307 24.099 76.4157 24.081C76.1097 24.072 75.8577 24.045 75.6597 24L70.6917 15.441ZM95.171 23.2845C94.991 23.5365 94.739 23.748 94.415 23.919C94.091 24.081 93.7715 24.162 93.4565 24.162C92.9795 24.153 92.624 24.027 92.39 23.784C92.156 23.532 91.931 23.172 91.715 22.704L90.1625 19.3425C89.8475 18.6585 89.51 18.1815 89.15 17.9115C88.799 17.6415 88.286 17.5065 87.611 17.5065C87.449 17.4975 87.2195 17.502 86.9225 17.52C86.6345 17.529 86.3375 17.5425 86.0315 17.5605V24C85.8335 24.036 85.613 24.063 85.37 24.081C85.136 24.099 84.9155 24.108 84.7085 24.108C84.5195 24.108 84.299 24.099 84.047 24.081C83.795 24.063 83.57 24.036 83.372 24V9.285C83.57 9.249 83.795 9.222 84.047 9.204C84.299 9.186 84.5195 9.177 84.7085 9.177C84.9155 9.177 85.136 9.186 85.37 9.204C85.613 9.222 85.8335 9.249 86.0315 9.285V15.3465L87.2195 15.306C87.4985 15.297 87.692 15.252 87.8 15.171C87.908 15.09 88.043 14.9325 88.205 14.6985L91.1075 10.2165C91.3145 9.8925 91.5215 9.6405 91.7285 9.4605C91.9445 9.2805 92.2865 9.1905 92.7545 9.1905C92.9345 9.1905 93.173 9.1995 93.47 9.2175C93.776 9.2355 94.0505 9.258 94.2935 9.285L94.469 9.501L90.9185 14.874C90.6215 15.333 90.2975 15.7065 89.9465 15.9945C90.6575 16.1295 91.211 16.413 91.607 16.845C92.003 17.277 92.354 17.8215 92.66 18.4785L94.0235 21.4755C94.2125 21.9075 94.397 22.272 94.577 22.569C94.766 22.866 94.964 23.1045 95.171 23.2845Z" fill="#11C76F"/>
<defs>
<clipPath id="clip0_4771:67">
<rect width="18.5143" height="17.9745" fill="white" transform="translate(8.6286 7.49368)"/>
</clipPath>
</defs>
</svg>
