<svg width="126" height="38" viewBox="0 0 126 38" fill="none" xmlns="http://www.w3.org/2000/svg">
<path d="M96.7 32.3H102.5V15.4H96.7V32.3ZM104.5 3.9H100.6V7.8H104.5V3.9ZM82.6 5.8H77V10.7H82.2C85.5 10.7 87.4 12.3 87.4 15.3C87.4 18.3 85.5 20 82.2 20H77V10.8H71.2V32.3H77V24.9H82.5C89.2 24.9 93.1 21.3 93.1 15.1C93.1 9.3 89.3 5.8 82.6 5.8ZM108.4 0H96.7V11.7H108.4V0ZM106.5 9.7H98.7V1.9H106.5V9.7ZM117.3 27.9C114.5 27.9 112.5 25.7 112.5 22.4C112.5 19.2 114.5 17 117.3 17C119.3 17 120.8 17.8 121.9 19.2L125.8 16.4C124 13.7 120.9 12.1 117 12.1C110.9 12 106.7 16.2 106.7 22.4C106.7 28.6 110.9 32.7 117 32.7C121.2 32.7 124.3 31 126 28.2L122 25.5C121 27.1 119.4 27.9 117.3 27.9Z" fill="#11c76f"/>
<path d="M11.5 2.89994H6.2V7.79994H11.2C14.5 7.79994 16.4 9.39994 16.4 12.3999C16.4 15.3999 14.5 17.0999 11.2 17.0999H6.2V7.89994H0.400002V29.3999H6.2V21.9999H11.5C18.2 21.9999 22.1 18.3999 22.1 12.1999C22.1 6.39994 18.2 2.89994 11.5 2.89994ZM60.2 9.09994L55.2 21.6999L50.2 9.09994H44.2L52.2 29.3999L49.1 37.0999H55.2L66.2 9.09994H60.2ZM34.2 8.99994C30.7 8.99994 28 9.79994 25 11.2999L26.8 15.2999C28.9 14.0999 31 13.4999 32.9 13.4999C35.7 13.4999 37.1 14.6999 37.1 16.8999V17.2999H31.5C26.5 17.2999 23.8 19.5999 23.8 23.3999C23.8 27.0999 26.4 29.6999 30.8 29.6999C33.6 29.6999 35.6 28.6999 37.2 26.9999V29.1999H42.9V15.9999C42.7 11.6999 39.6 8.99994 34.2 8.99994ZM37.6 22.5999C37 24.2999 35.3 25.6999 32.9 25.6999C30.9 25.6999 29.7 24.6999 29.7 23.0999C29.7 21.4999 30.8 20.7999 33 20.7999H37.6V22.5999Z" fill="#11c76f"/>
</svg>
